<svg xmlns="http://www.w3.org/2000/svg" width="32" height="32"><g transform="translate(0 -1020.362)"><path fill="none" stroke="#666" d="M24.55 1033.862c0-5.5-8.55-3.5-8.55-8.5m-8.525 8.5c0-5.5 8.55-3.5 8.55-8.5m-3.525 21c0-5-5-4-5-8.5m-5 8.5c0-5 5-4 5-8.5"/><g color="#000" transform="translate(13.5 25)"><circle cx="16" cy="1023.862" r="2" fill="none" stroke="#25b39e" stroke-dashoffset="1.1" stroke-linecap="round" stroke-linejoin="round" overflow="visible" style="isolation:auto;mix-blend-mode:normal"/><circle cx="16" cy="1023.862" r=".5" fill="#666" overflow="visible" style="isolation:auto;mix-blend-mode:normal"/></g><circle cx="19.5" cy="1048.862" r="2" fill="none" stroke="#25b39e" stroke-dashoffset="1.1" stroke-linecap="round" stroke-linejoin="round" style="isolation:auto;mix-blend-mode:normal" color="#000" overflow="visible"/><circle style="isolation:auto;mix-blend-mode:normal" cx="19.5" cy="1048.862" r=".5" fill="#666" color="#000" overflow="visible"/><g color="#000" transform="translate(-13.5 25)"><circle cx="16" cy="1023.862" r="2" fill="none" stroke="#25b39e" stroke-dashoffset="1.1" stroke-linecap="round" stroke-linejoin="round" style="isolation:auto;mix-blend-mode:normal" overflow="visible"/><circle style="isolation:auto;mix-blend-mode:normal" cx="16" cy="1023.862" r=".5" fill="#666" overflow="visible"/></g><g color="#000" transform="translate(-3.5 25)"><circle cx="16" cy="1023.862" r="2" fill="none" stroke="#25b39e" stroke-dashoffset="1.1" stroke-linecap="round" stroke-linejoin="round" overflow="visible" style="isolation:auto;mix-blend-mode:normal"/><circle cx="16" cy="1023.862" r=".5" fill="#666" overflow="visible" style="isolation:auto;mix-blend-mode:normal"/></g><g color="#000" transform="translate(-8.5 12)"><circle cx="16" cy="1023.862" r="2" fill="none" stroke="#25b39e" stroke-dashoffset="1.1" stroke-linecap="round" stroke-linejoin="round" overflow="visible" style="isolation:auto;mix-blend-mode:normal"/><circle cx="16" cy="1023.862" r=".5" fill="#666" overflow="visible" style="isolation:auto;mix-blend-mode:normal"/></g><path fill="none" stroke="#666" d="M29.5 1046.362c0-5-5-4-5-8.5m-5 8.5c0-5 5-4 5-8.5"/><g color="#000" transform="translate(8.5 12)"><circle cx="16" cy="1023.862" r="2" fill="none" stroke="#25b39e" stroke-dashoffset="1.1" stroke-linecap="round" stroke-linejoin="round" style="isolation:auto;mix-blend-mode:normal" overflow="visible"/><circle style="isolation:auto;mix-blend-mode:normal" cx="16" cy="1023.862" r=".5" fill="#666" overflow="visible"/></g><g color="#000"><circle cx="16" cy="1023.862" r="2" fill="none" stroke="#25b39e" stroke-dashoffset="1.1" stroke-linecap="round" stroke-linejoin="round" overflow="visible" style="isolation:auto;mix-blend-mode:normal"/><circle cx="16" cy="1023.862" r=".5" fill="#666" overflow="visible" style="isolation:auto;mix-blend-mode:normal"/></g></g></svg>