<svg xmlns="http://www.w3.org/2000/svg" fill-rule="evenodd" stroke-linejoin="round" stroke-miterlimit="2" clip-rule="evenodd" viewBox="0 0 64 64"><rect width="64" height="64" fill="none"/><path d="M446,374L448,374C451.311,374 454,371.311 454,368L454,336C454,332.689 451.311,330 448,330C448,330 416,330 416,330C412.689,330 410,332.689 410,336L410,368C410,371.311 412.689,374 416,374L438,374C439.104,374 440,374.896 440,376C440,377.104 439.104,378 438,378L416,378C410.481,378 406,373.519 406,368C406,368 406,336 406,336C406,330.481 410.481,326 416,326L448,326C453.519,326 458,330.481 458,336C458,336 458,368 458,368C458,373.519 453.519,378 448,378C448,378 446,378 446,378C444.896,378 444,377.104 444,376C444,374.896 444.896,374 446,374Z" transform="matrix(0 1 1 0 -320 -400)"/><path d="M28,270L8,270C6.16,270 4.667,270.896 4.667,272C4.667,273.104 6.16,274 8,274L28,274C29.84,274 31.333,273.104 31.333,272C31.333,270.896 29.84,270 28,270Z" transform="matrix(0 -.6 1 0 -227 42.8)"/><path d="M8.828,272L12.414,275.586C13.195,276.366 13.195,277.634 12.414,278.414C11.634,279.195 10.366,279.195 9.586,278.414L4.586,273.414C3.805,272.633 3.805,271.367 4.586,270.586L9.586,265.586C10.366,264.805 11.634,264.805 12.414,265.586C13.195,266.366 13.195,267.634 12.414,268.414L8.828,272Z" transform="rotate(-90 -91.5 135.5)"/><path d="M406,336L434,336C435.932,336 437.5,335.104 437.5,334C437.5,332.896 435.932,332 434,332L406,332C404.068,332 402.5,332.896 402.5,334C402.5,335.104 404.068,336 406,336Z" transform="matrix(.57143 0 0 1 -216 -302)"/><path d="M406,336L434,336C435.405,336 436.545,335.104 436.545,334C436.545,332.896 435.405,332 434,332L406,332C404.595,332 403.455,332.896 403.455,334C403.455,335.104 404.595,336 406,336Z" transform="matrix(.78571 0 0 1 -303 -314)"/><path d="M406,336L434,336C437.091,336 439.6,335.104 439.6,334C439.6,332.896 437.091,332 434,332L406,332C402.909,332 400.4,332.896 400.4,334C400.4,335.104 402.909,336 406,336Z" transform="matrix(.35714 0 0 1 -129 -290)"/></svg>